HIERARCHY
ROOT hip
{
  OFFSET 0 0 0
  CHANNELS 6 Xposition Yposition Zposition Zrotation Yrotation Xrotation
  JOINT abdomen
  {
    OFFSET 0 20.6881 -0.73152
    CHANNELS 3 Zrotation Xrotation Yrotation
    JOINT chest
    {
      OFFSET 0 11.7043 -0.48768
      CHANNELS 3 Zrotation Xrotation Yrotation
      JOINT neck
      {
        OFFSET 0 22.1894 -2.19456
        CHANNELS 3 Zrotation Xrotation Yrotation
        JOINT head
        {
          OFFSET -0.24384 7.07133 1.2192
          CHANNELS 3 Zrotation Xrotation Yrotation
          JOINT leftEye
          {
            OFFSET 4.14528 8.04674 8.04672
            CHANNELS 3 Zrotation Xrotation Yrotation
            End Site
            {
              OFFSET 1 0 0
            }
          }
          JOINT rightEye
          {
            OFFSET -3.6576 8.04674 8.04672
            CHANNELS 3 Zrotation Xrotation Yrotation
            End Site
            {
              OFFSET 1 0 0
            }
          }
        }
      }
      JOINT rCollar
      {
        OFFSET -2.68224 19.2634 -4.8768
        CHANNELS 3 Zrotation Xrotation Yrotation
        JOINT rShldr
        {
          OFFSET -8.77824 -1.95073 1.46304
          CHANNELS 3 Zrotation Xrotation Yrotation
          JOINT rForeArm
          {
            OFFSET -28.1742 -1.7115 0.48768
            CHANNELS 3 Zrotation Xrotation Yrotation
            JOINT rHand
            {
              OFFSET -22.5879 0.773209 7.07136
              CHANNELS 3 Zrotation Xrotation Yrotation
              JOINT rThumb1
              {
                OFFSET -1.2192 -0.487915 3.41376
                CHANNELS 3 Zrotation Xrotation Yrotation
                JOINT rThumb2
                {
                  OFFSET -3.37035 -0.52449 3.41376
                  CHANNELS 3 Zrotation Xrotation Yrotation
                  End Site
                  {
                    OFFSET -1.78271 -1.18214 1.43049
                  }
                }
              }
              JOINT rIndex1
              {
                OFFSET -7.75947 0.938293 5.60832
                CHANNELS 3 Zrotation Xrotation Yrotation
                JOINT rIndex2
                {
                  OFFSET -2.54057 -0.884171 1.56538
                  CHANNELS 3 Zrotation Xrotation Yrotation
                  End Site
                  {
                    OFFSET -1.62519 -0.234802 1.16502
                  }
                }
              }
              JOINT rMid1
              {
                OFFSET -8.24714 1.18213 3.41376
                CHANNELS 3 Zrotation Xrotation Yrotation
                JOINT rMid2
                {
                  OFFSET -3.10165 -0.590103 1.0647
                  CHANNELS 3 Zrotation Xrotation Yrotation
                  End Site
                  {
                    OFFSET -2.48547 -0.328903 0.83742
                  }
                }
              }
              JOINT rRing1
              {
                OFFSET -8.82822 0.546677 1.51678
                CHANNELS 3 Zrotation Xrotation Yrotation
                JOINT rRing2
                {
                  OFFSET -2.60934 -0.819778 -0.0198488
                  CHANNELS 3 Zrotation Xrotation Yrotation
                  End Site
                  {
                    OFFSET -2.33842 -0.294052 0.168128
                  }
                }
              }
              JOINT rPinky1
              {
                OFFSET -8.27202 -0.0477905 -0.4584
                CHANNELS 3 Zrotation Xrotation Yrotation
                JOINT rPinky2
                {
                  OFFSET -1.82734 -0.647385 -0.700984
                  CHANNELS 3 Zrotation Xrotation Yrotation
                  End Site
                  {
                    OFFSET -1.69225 -0.51767 -0.607171
                  }
                }
              }
            }
          }
        }
      }
      JOINT lCollar
      {
        OFFSET 2.68224 19.2634 -4.8768
        CHANNELS 3 Zrotation Xrotation Yrotation
        JOINT lShldr
        {
          OFFSET 8.77824 -1.95073 1.46304
          CHANNELS 3 Zrotation Xrotation Yrotation
          JOINT lForeArm
          {
            OFFSET 28.1742 -1.7115 0.48768
            CHANNELS 3 Zrotation Xrotation Yrotation
            JOINT lHand
            {
              OFFSET 22.5879 0.773209 7.07136
              CHANNELS 3 Zrotation Xrotation Yrotation
              JOINT lThumb1
              {
                OFFSET 1.2192 -0.487915 3.41376
                CHANNELS 3 Zrotation Xrotation Yrotation
                JOINT lThumb2
                {
                  OFFSET 3.37035 -0.52449 3.41376
                  CHANNELS 3 Zrotation Xrotation Yrotation
                  End Site
                  {
                    OFFSET 1.78271 -1.18214 1.43049
                  }
                }
              }
              JOINT lIndex1
              {
                OFFSET 7.75947 0.938293 5.60832
                CHANNELS 3 Zrotation Xrotation Yrotation
                JOINT lIndex2
                {
                  OFFSET 2.54057 -0.884171 1.56538
                  CHANNELS 3 Zrotation Xrotation Yrotation
                  End Site
                  {
                    OFFSET 1.62519 -0.234802 1.16502
                  }
                }
              }
              JOINT lMid1
              {
                OFFSET 8.24714 1.18213 3.41376
                CHANNELS 3 Zrotation Xrotation Yrotation
                JOINT lMid2
                {
                  OFFSET 3.10165 -0.590103 1.0647
                  CHANNELS 3 Zrotation Xrotation Yrotation
                  End Site
                  {
                    OFFSET 2.48547 -0.328903 0.83742
                  }
                }
              }
              JOINT lRing1
              {
                OFFSET 8.82822 0.546677 1.51678
                CHANNELS 3 Zrotation Xrotation Yrotation
                JOINT lRing2
                {
                  OFFSET 2.60934 -0.819778 -0.0198488
                  CHANNELS 3 Zrotation Xrotation Yrotation
                  End Site
                  {
                    OFFSET 2.33842 -0.294052 0.168128
                  }
                }
              }
              JOINT lPinky1
              {
                OFFSET 8.27202 -0.0477905 -0.4584
                CHANNELS 3 Zrotation Xrotation Yrotation
                JOINT lPinky2
                {
                  OFFSET 1.82734 -0.647385 -0.700984
                  CHANNELS 3 Zrotation Xrotation Yrotation
                  End Site
                  {
                    OFFSET 1.69225 -0.51767 -0.607171
                  }
                }
              }
            }
          }
        }
      }
    }
  }
  JOINT rButtock
  {
    OFFSET -8.77824 4.35084 1.2192
    CHANNELS 3 Zrotation Xrotation Yrotation
    JOINT rThigh
    {
      OFFSET 0 -1.70687 -2.19456
      CHANNELS 3 Zrotation Xrotation Yrotation
      JOINT rShin
      {
        OFFSET 0 -36.8199 0.73152
        CHANNELS 3 Zrotation Xrotation Yrotation
        JOINT rFoot
        {
          OFFSET 0.73152 -45.1104 -5.12064
          CHANNELS 3 Zrotation Xrotation Yrotation
          End Site
          {
            OFFSET -1.1221 -3.69964 12.103
          }
        }
      }
    }
  }
  JOINT lButtock
  {
    OFFSET 8.77824 4.35084 1.2192
    CHANNELS 3 Zrotation Xrotation Yrotation
    JOINT lThigh
    {
      OFFSET 0 -1.70687 -2.19456
      CHANNELS 3 Zrotation Xrotation Yrotation
      JOINT lShin
      {
        OFFSET 0 -36.8199 0.73152
        CHANNELS 3 Zrotation Xrotation Yrotation
        JOINT lFoot
        {
          OFFSET -0.73152 -45.1104 -5.12064
          CHANNELS 3 Zrotation Xrotation Yrotation
          End Site
          {
            OFFSET 1.1221 -3.69964 12.103
          }
        }
      }
    }
  }
}
MOTION
Frames:	8
Frame Time:	0.00833333
75.7847 84.5294 -9.99081 0.0 0.0 0.0 -0.769301 -0.00386081 -0.0215822 -0.21206 -0.00504248 -0.0367417 1.22178e-14 7.95139e-16 2.48481e-17 3.66168e-14 9.54166e-15 5.74612e-17 -0.0 0.0 0.0 -0.0 0.0 0.0 6.21093e-15 5.43552e-18 1.49089e-16 1.29218e-13 1.11816e-16 1.78906e-15 2.20477e-12 -6.542e-13 -1.90833e-14 2.52378e-11 6.95125e-13 6.67917e-14 5.9527e-11 8.92798e-14 1.33583e-13 1.02782e-10 1.55847e-13 2.35361e-13 5.953e-11 9.10434e-14 1.27222e-13 7.73091 5.47488 0.417314 5.95268e-11 8.8658e-14 1.39944e-13 2.90554 0.965183 0.102902 5.95317e-11 8.90555e-14 1.35969e-13 10.2786 0.731801 0.0259123 5.95203e-11 9.22361e-14 1.43125e-13 2.22167 -0.733487 -0.20892 6.01473e-15 5.62964e-18 -1.49089e-16 1.26497e-13 2.29845e-16 0.0 2.20566e-12 6.66326e-13 -2.8625e-14 2.52298e-11 -6.24855e-13 9.85972e-14 5.95192e-11 8.92989e-14 1.33583e-13 1.02797e-10 1.52667e-13 2.29e-13 5.95157e-11 9.06458e-14 1.39944e-13 -7.73091 5.47488 -0.417314 5.95191e-11 8.89561e-14 1.30403e-13 -2.90554 0.965183 -0.102902 5.95133e-11 8.93537e-14 1.35174e-13 -10.2786 0.731801 -0.0259123 5.95275e-11 8.98507e-14 1.27222e-13 -2.22167 -0.733487 0.20892 -2.03217e-16 0.0 -3.88251e-19 -0.0545233 -2.09678 -0.0176973 -0.00903561 -1.75484 -0.0760029 -0.528287 3.85116 0.139682 2.03217e-16 0.0 3.88251e-19 -1.11548 -4.98906 0.0938836 0.00115577 3.48403 -0.00503192 0.537657 1.50469 -0.0923633
77.5113 132.001 -14.4287 -30.8653 -65.3125 -147.994 0.266248 -2.39019 3.64183 -1.8329 -0.381057 0.936668 0.157191 1.79464 1.2161 -1.42304 -12.7423 1.95817 -0.0 0.0 0.0 -0.0 0.0 0.0 7.56684e-14 5.92454e-13 -2.86883e-14 -3.54306 -15.3457 12.9318 -8.7297 -5.60502 11.4089 0.101623 -7.08875 -0.969041 4.01847e-10 6.23891e-11 1.05608e-10 6.90771e-10 1.03875e-10 1.90438e-10 4.01851e-10 6.2388e-11 1.056e-10 7.73091 5.47488 0.417314 4.01846e-10 6.23845e-11 1.05612e-10 2.90554 0.965183 0.102902 4.01853e-10 6.23854e-11 1.05608e-10 10.2786 0.731801 0.0259123 4.0184e-10 6.2388e-11 1.05614e-10 2.22167 -0.733487 -0.20892 7.55003e-14 5.92454e-13 -2.89546e-14 13.9199 -21.1953 -8.07183 8.11886 -5.03532 -10.8839 -0.00757916 2.01038 -0.281976 4.53763e-10 5.12803e-10 2.16389e-10 7.85783e-10 8.87635e-10 3.72733e-10 4.5376e-10 5.12804e-10 2.16396e-10 -7.73091 5.47488 -0.417314 4.53764e-10 5.12803e-10 2.16387e-10 -2.90554 0.965183 -0.102902 4.53758e-10 5.12803e-10 2.1639e-10 -10.2786 0.731801 -0.0259123 4.53768e-10 5.12804e-10 2.16383e-10 -2.22167 -0.733487 0.20892 -2.03217e-16 0.0 -3.88251e-19 -3.74444 2.24998 1.54041 0.120597 11.8648 0.207884 -0.387369 4.11118 0.74876 2.03217e-16 0.0 3.88251e-19 -0.716926 -13.1434 3.55998 -0.0377426 20.2056 -0.256858 0.373972 3.27711 -3.0329
77.7876 132.039 -14.5856 -35.9905 -68.7704 -142.754 1.71972 -4.8848 7.5686 -3.52032 -0.779735 1.9746 0.230032 3.70655 2.51572 -1.88798 -26.1862 4.40161 -0.0 0.0 0.0 -0.0 0.0 0.0 1.47663e-13 1.23319e-12 -6.33657e-14 0.982527 -28.7073 29.5976 -15.6294 -10.8607 23.8976 -0.059359 -14.5376 -2.03877 7.75494e-10 1.45906e-10 2.05456e-10 1.33308e-09 2.44005e-10 3.71531e-10 7.75499e-10 1.45902e-10 2.05446e-10 7.73091 5.47488 0.417314 7.75492e-10 1.45897e-10 2.05457e-10 2.90554 0.965183 0.102902 7.75502e-10 1.45898e-10 2.05452e-10 10.2786 0.731801 0.0259123 7.75486e-10 1.459e-10 2.05457e-10 2.22167 -0.733487 -0.20892 1.47526e-13 1.23319e-12 -6.35956e-14 20.2349 -42.0685 -21.0426 14.6269 -9.72524 -22.6214 0.00654948 4.19986 -0.590309 8.86997e-10 1.10815e-09 4.29744e-10 1.53629e-09 1.9181e-09 7.39964e-10 8.86994e-10 1.10815e-09 4.29752e-10 -7.73091 5.47488 -0.417314 8.86998e-10 1.10815e-09 4.29742e-10 -2.90554 0.965183 -0.102902 8.86993e-10 1.10815e-09 4.29743e-10 -10.2786 0.731801 -0.0259123 8.86998e-10 1.10815e-09 4.29737e-10 -2.22167 -0.733487 0.20892 -2.03217e-16 0.0 -3.88251e-19 -7.89472 6.84182 3.21945 0.0963113 26.2598 0.555403 -0.249168 4.45259 1.41122 2.03217e-16 0.0 3.88251e-19 0.829509 -21.6456 7.53368 0.11955 37.9087 -0.622955 0.40329 5.17858 -6.10681
78.2503 132.237 -14.7071 -44.2218 -71.7518 -134.725 3.25248 -7.04577 11.0436 -5.03627 -1.13181 2.88399 0.242341 5.37419 3.66263 -1.06538 -38.0231 7.28096 -0.0 0.0 0.0 -0.0 0.0 0.0 2.14583e-13 1.77735e-12 -8.6363e-14 12.172 -35.6439 48.35 -19.7695 -14.1411 35.2801 -0.458714 -21.241 -3.09537 1.08649e-09 1.86989e-10 3.16557e-10 1.86675e-09 3.11312e-10 5.70844e-10 1.08649e-09 1.86982e-10 3.16545e-10 7.73091 5.47488 0.417314 1.08648e-09 1.86976e-10 3.16556e-10 2.90554 0.965183 0.102902 1.0865e-09 1.86978e-10 3.16551e-10 10.2786 0.731801 0.0259123 1.08648e-09 1.8698e-10 3.16555e-10 2.22167 -0.733487 -0.20892 2.14471e-13 1.77735e-12 -8.65657e-14 12.1641 -56.2153 -43.6417 18.8438 -12.923 -33.4787 0.0369047 6.03054 -0.850112 1.24225e-09 1.53823e-09 6.48901e-10 2.15176e-09 2.6626e-09 1.11774e-09 1.24225e-09 1.53823e-09 6.4891e-10 -7.73091 5.47488 -0.417314 1.24225e-09 1.53823e-09 6.489e-10 -2.90554 0.965183 -0.102902 1.24225e-09 1.53823e-09 6.48899e-10 -10.2786 0.731801 -0.0259123 1.24225e-09 1.53823e-09 6.48894e-10 -2.22167 -0.733487 0.20892 -2.03217e-16 0.0 -3.88251e-19 -11.8429 10.9094 4.73887 -0.116094 39.1002 0.982263 -0.122167 4.62952 1.96819 2.03217e-16 0.0 3.88251e-19 3.39941 -29.0129 11.6976 0.587781 53.6432 -1.20298 0.593217 6.75303 -8.96182
78.8037 131.97 -14.878 -55.8474 -74.1553 -123.364 4.32248 -8.48942 13.3157 -6.15138 -1.36865 3.47153 0.271856 6.44101 4.41321 0.490388 -46.0413 9.91472 -0.0 0.0 0.0 -0.0 0.0 0.0 2.68816e-13 2.08008e-12 -8.01599e-14 22.4936 -36.7323 62.652 -21.6426 -15.2297 42.8342 -0.915727 -26.1039 -3.94863 1.24085e-09 1.21987e-10 4.55793e-10 2.12885e-09 1.96565e-10 8.15709e-10 1.24085e-09 1.21979e-10 4.5578e-10 7.73091 5.47488 0.417314 1.24084e-09 1.21973e-10 4.55789e-10 2.90554 0.965183 0.102902 1.24086e-09 1.21975e-10 4.55785e-10 10.2786 0.731801 0.0259123 1.24084e-09 1.21976e-10 4.55789e-10 2.22167 -0.733487 -0.20892 2.68715e-13 2.08008e-12 -8.03587e-14 -3.75391 -60.0754 -68.2677 21.0768 -14.4294 -41.3626 0.0598679 6.96491 -0.983752 1.40256e-09 1.55516e-09 8.82563e-10 2.42961e-09 2.69216e-09 1.52187e-09 1.40256e-09 1.55517e-09 8.82572e-10 -7.73091 5.47488 -0.417314 1.40256e-09 1.55516e-09 8.82563e-10 -2.90554 0.965183 -0.102902 1.40255e-09 1.55516e-09 8.8256e-10 -10.2786 0.731801 -0.0259123 1.40256e-09 1.55517e-09 8.82556e-10 -2.22167 -0.733487 0.20892 -2.03217e-16 0.0 -3.88251e-19 -14.7651 13.7013 5.77254 -0.43623 48.0581 1.42189 -0.00465394 4.39689 2.25993 2.03217e-16 0.0 3.88251e-19 6.1201 -33.9269 15.274 1.35391 64.4602 -2.00106 0.787591 7.57121 -11.2244
79.2416 131.919 -15.0257 -70.3952 -75.8165 -108.971 4.42448 -8.99944 13.8463 -6.72484 -1.45109 3.60533 0.445026 6.64457 4.6057 1.25566 -48.8906 10.8251 -0.0 0.0 0.0 -0.0 0.0 0.0 3.20681e-13 2.05749e-12 -2.72397e-14 26.6069 -37.0463 68.9527 -21.8847 -14.9554 44.548 -1.18375 -28.5016 -4.40018 1.17546e-09 -1.79754e-10 7.03222e-10 2.00757e-09 -3.25968e-10 1.24378e-09 1.17547e-09 -1.79763e-10 7.0321e-10 7.73091 5.47488 0.417314 1.17546e-09 -1.79766e-10 7.03219e-10 2.90554 0.965183 0.102902 1.17547e-09 -1.79766e-10 7.03216e-10 10.2786 0.731801 0.0259123 1.17545e-09 -1.79763e-10 7.03221e-10 2.22167 -0.733487 -0.20892 3.20569e-13 2.05749e-12 -2.74765e-14 -10.2044 -59.5119 -77.7905 21.9049 -14.9365 -44.7624 0.0564345 6.66961 -0.941649 1.3307e-09 8.84914e-10 1.22251e-09 2.30519e-09 1.53253e-09 2.11236e-09 1.3307e-09 8.84915e-10 1.22252e-09 -7.73091 5.47488 -0.417314 1.33071e-09 8.84914e-10 1.22251e-09 -2.90554 0.965183 -0.102902 1.3307e-09 8.84914e-10 1.22251e-09 -10.2786 0.731801 -0.0259123 1.33071e-09 8.84916e-10 1.22251e-09 -2.22167 -0.733487 0.20892 -2.03217e-16 0.0 -3.88251e-19 -16.0261 14.7344 6.01017 -0.621625 51.5621 1.65967 0.11184 3.45089 2.11464 2.03217e-16 0.0 3.88251e-19 7.69732 -35.7061 17.2277 1.84639 68.4025 -2.47262 0.790956 7.28971 -12.682
79.6954 131.784 -15.1868 -87.369 -76.3489 -92.1338 3.77998 -8.861 13.1215 -6.91338 -1.42316 3.41507 0.730502 6.23421 4.39739 0.903524 -48.1073 10.0258 -0.0 0.0 0.0 -0.0 0.0 0.0 3.7012e-13 1.80191e-12 5.87719e-14 26.1148 -38.7742 70.1838 -21.0967 -13.9899 42.1031 -1.23493 -29.1403 -4.51612 9.53134e-10 -6.46394e-10 1.02466e-09 1.6126e-09 -1.1325e-09 1.79703e-09 9.53139e-10 -6.46401e-10 1.02465e-09 7.73091 5.47488 0.417314 9.53134e-10 -6.46402e-10 1.02465e-09 2.90554 0.965183 0.102902 9.5314e-10 -6.46403e-10 1.02465e-09 10.2786 0.731801 0.0259123 9.53128e-10 -6.46399e-10 1.02466e-09 2.22167 -0.733487 -0.20892 3.69983e-13 1.80191e-12 5.84675e-14 -8.27484 -59.1519 -75.5105 22.0017 -15.1479 -44.9213 0.0372951 5.49472 -0.774376 1.09108e-09 -2.71002e-10 1.63429e-09 1.89006e-09 -4.67557e-10 2.82883e-09 1.09108e-09 -2.71002e-10 1.6343e-09 -7.73091 5.47488 -0.417314 1.09108e-09 -2.71002e-10 1.63429e-09 -2.90554 0.965183 -0.102902 1.09107e-09 -2.71003e-10 1.63429e-09 -10.2786 0.731801 -0.0259123 1.09109e-09 -2.70999e-10 1.63429e-09 -2.22167 -0.733487 0.20892 -2.03217e-16 0.0 -3.88251e-19 -16.0489 14.5172 5.66345 -0.596685 51.1732 1.65391 0.207677 2.00124 1.66246 2.03217e-16 0.0 3.88251e-19 8.06552 -35.3564 17.7583 1.72464 67.4387 -2.30524 0.599473 6.24327 -13.5571
80.1613 131.579 -15.3698 -104.09 -75.6936 -75.5052 2.90027 -8.47193 11.9106 -6.93545 -1.34132 3.09973 0.980483 5.62358 4.01944 0.234994 -45.8764 8.63587 -0.0 0.0 0.0 -0.0 0.0 0.0 3.93961e-13 1.43286e-12 1.48682e-13 23.6627 -41.1379 69.1832 -19.7758 -12.61 38.2558 -1.17422 -28.9261 -4.4627 6.68765e-10 -1.03784e-09 1.2656e-09 1.11322e-09 -1.80797e-09 2.20926e-09 6.6877e-10 -1.03785e-09 1.2656e-09 7.73091 5.47488 0.417314 6.68767e-10 -1.03784e-09 1.2656e-09 2.90554 0.965183 0.102902 6.6877e-10 -1.03785e-09 1.2656e-09 10.2786 0.731801 0.0259123 6.6876e-10 -1.03784e-09 1.26561e-09 2.22167 -0.733487 -0.20892 3.93793e-13 1.43286e-12 1.48313e-13 -3.35014 -58.67 -68.8279 21.8444 -15.2983 -43.805 0.018807 3.92812 -0.552707 7.19122e-10 -1.44714e-09 1.93723e-09 1.24607e-09 -2.50256e-09 3.35659e-09 7.19117e-10 -1.44715e-09 1.93724e-09 -7.73091 5.47488 -0.417314 7.19124e-10 -1.44715e-09 1.93723e-09 -2.90554 0.965183 -0.102902 7.19113e-10 -1.44715e-09 1.93723e-09 -10.2786 0.731801 -0.0259123 7.19137e-10 -1.44714e-09 1.93723e-09 -2.22167 -0.733487 0.20892 -2.03217e-16 0.0 -3.88251e-19 -15.563 13.7957 5.165 -0.486282 49.2628 1.55035 0.261635 0.574373 1.194 2.03217e-16 0.0 3.88251e-19 7.96289 -34.1709 17.7084 1.40235 64.5077 -1.93202 0.337283 5.02868 -14.1193
